<mxfile host="app.diagrams.net" agent="Mozilla/5.0 (Windows NT 10.0; Win64; x64) AppleWebKit/537.36 (KHTML, like Gecko) Chrome/129.0.0.0 Safari/537.36" version="24.7.17">
  <diagram name="Page-1" id="QPIoaoNeskahmq1ZSd6a">
    <mxGraphModel dx="683" dy="351" grid="1" gridSize="10" guides="1" tooltips="1" connect="1" arrows="1" fold="1" page="1" pageScale="1" pageWidth="827" pageHeight="1169" math="0" shadow="0">
      <root>
        <mxCell id="0" />
        <mxCell id="1" parent="0" />
        <mxCell id="1G5z_Vy1fZvwprZ7SkQf-2" value="" style="endArrow=none;dashed=1;html=1;dashPattern=1 3;strokeWidth=2;rounded=0;" edge="1" parent="1">
          <mxGeometry width="50" height="50" relative="1" as="geometry">
            <mxPoint x="360" y="360" as="sourcePoint" />
            <mxPoint x="590" y="360" as="targetPoint" />
          </mxGeometry>
        </mxCell>
        <mxCell id="1G5z_Vy1fZvwprZ7SkQf-3" value="" style="endArrow=none;html=1;rounded=0;fillColor=#d5e8d4;strokeColor=#82b366;" edge="1" parent="1">
          <mxGeometry width="50" height="50" relative="1" as="geometry">
            <mxPoint x="360" y="360" as="sourcePoint" />
            <mxPoint x="480" y="200" as="targetPoint" />
          </mxGeometry>
        </mxCell>
        <mxCell id="1G5z_Vy1fZvwprZ7SkQf-4" value="" style="endArrow=none;html=1;rounded=0;fillColor=#d5e8d4;strokeColor=#82b366;" edge="1" parent="1">
          <mxGeometry width="50" height="50" relative="1" as="geometry">
            <mxPoint x="360" y="360" as="sourcePoint" />
            <mxPoint x="520" y="480" as="targetPoint" />
          </mxGeometry>
        </mxCell>
        <mxCell id="1G5z_Vy1fZvwprZ7SkQf-5" value="" style="endArrow=classic;html=1;rounded=0;" edge="1" parent="1">
          <mxGeometry width="50" height="50" relative="1" as="geometry">
            <mxPoint x="360" y="360" as="sourcePoint" />
            <mxPoint x="560" y="330" as="targetPoint" />
          </mxGeometry>
        </mxCell>
        <mxCell id="1G5z_Vy1fZvwprZ7SkQf-6" value="" style="verticalLabelPosition=bottom;verticalAlign=top;html=1;shape=mxgraph.basic.arc;startAngle=0.9949223104324861;endAngle=0.18362455162480457;rotation=45;" vertex="1" parent="1">
          <mxGeometry x="440" y="340" width="30" height="30" as="geometry" />
        </mxCell>
        <mxCell id="1G5z_Vy1fZvwprZ7SkQf-7" value="Φ" style="text;whiteSpace=wrap;strokeWidth=1;fontSize=17;" vertex="1" parent="1">
          <mxGeometry x="480" y="335" width="40" height="40" as="geometry" />
        </mxCell>
        <mxCell id="1G5z_Vy1fZvwprZ7SkQf-8" value="" style="verticalLabelPosition=bottom;verticalAlign=top;html=1;shape=mxgraph.basic.arc;startAngle=0.9132446956985639;endAngle=0.18362455162480457;rotation=45;fillColor=#d5e8d4;strokeColor=#82b366;" vertex="1" parent="1">
          <mxGeometry x="360" y="335" width="30" height="30" as="geometry" />
        </mxCell>
        <mxCell id="1G5z_Vy1fZvwprZ7SkQf-10" value="μ" style="text;whiteSpace=wrap;fontSize=17;fontColor=#4D9900;" vertex="1" parent="1">
          <mxGeometry x="393.5" y="320" width="40" height="40" as="geometry" />
        </mxCell>
        <mxCell id="1G5z_Vy1fZvwprZ7SkQf-11" value="" style="verticalLabelPosition=bottom;verticalAlign=top;html=1;shape=mxgraph.basic.arc;startAngle=0.026555823558017506;endAngle=0.25324760924418727;rotation=45;fillColor=#d5e8d4;strokeColor=#82b366;" vertex="1" parent="1">
          <mxGeometry x="350" y="340" width="66.46" height="60.61" as="geometry" />
        </mxCell>
        <mxCell id="1G5z_Vy1fZvwprZ7SkQf-12" value="μ" style="text;whiteSpace=wrap;fontSize=17;fontColor=#4D9900;" vertex="1" parent="1">
          <mxGeometry x="416.46" y="365" width="40" height="40" as="geometry" />
        </mxCell>
        <mxCell id="1G5z_Vy1fZvwprZ7SkQf-14" value="α-" style="text;whiteSpace=wrap;fontColor=#7D47B3;fontSize=17;" vertex="1" parent="1">
          <mxGeometry x="470" y="375" width="40" height="40" as="geometry" />
        </mxCell>
        <mxCell id="1G5z_Vy1fZvwprZ7SkQf-15" value="" style="verticalLabelPosition=bottom;verticalAlign=top;html=1;shape=mxgraph.basic.arc;startAngle=0.05710012560995407;endAngle=0.25324760924418727;rotation=45;fillColor=#e1d5e7;strokeColor=#9673a6;" vertex="1" parent="1">
          <mxGeometry x="360" y="329.69000000000005" width="96.46" height="110.61" as="geometry" />
        </mxCell>
        <mxCell id="1G5z_Vy1fZvwprZ7SkQf-16" value="" style="verticalLabelPosition=bottom;verticalAlign=top;html=1;shape=mxgraph.basic.arc;startAngle=0.05710012560995407;endAngle=0.2583688541782871;rotation=5;fillColor=#e1d5e7;strokeColor=#9673a6;" vertex="1" parent="1">
          <mxGeometry x="343.54" y="284.69000000000005" width="96.46" height="110.61" as="geometry" />
        </mxCell>
        <mxCell id="1G5z_Vy1fZvwprZ7SkQf-17" value="α+" style="text;whiteSpace=wrap;fontColor=#7D47B3;fontSize=17;" vertex="1" parent="1">
          <mxGeometry x="440" y="295" width="40" height="40" as="geometry" />
        </mxCell>
        <mxCell id="1G5z_Vy1fZvwprZ7SkQf-18" value="q" style="text;whiteSpace=wrap;strokeWidth=1;fontSize=17;" vertex="1" parent="1">
          <mxGeometry x="550" y="295" width="40" height="40" as="geometry" />
        </mxCell>
        <mxCell id="1G5z_Vy1fZvwprZ7SkQf-19" value="Γ+" style="text;whiteSpace=wrap;fontColor=#4D9900;fontSize=17;" vertex="1" parent="1">
          <mxGeometry x="470" y="210" width="40" height="40" as="geometry" />
        </mxCell>
        <mxCell id="1G5z_Vy1fZvwprZ7SkQf-20" value="Γ-" style="text;whiteSpace=wrap;fontColor=#4D9900;fontSize=17;" vertex="1" parent="1">
          <mxGeometry x="510" y="440.3" width="40" height="40" as="geometry" />
        </mxCell>
      </root>
    </mxGraphModel>
  </diagram>
</mxfile>
